# Blender 4.4.0 Alpha
# www.blender.org
mtllib playermodel.mtl
o Cube
v -0.760834 -0.145314 0.303389
v -0.833988 1.315954 0.241265
v -0.760834 -0.145314 -0.303389
v -0.833988 1.315954 -0.241265
v 0.760834 -0.145314 0.303389
v 0.833988 1.315954 0.241265
v 0.760834 -0.145314 -0.303389
v 0.833988 1.315954 -0.241265
v -0.601035 0.540481 0.303389
v -0.413617 0.552183 0.303389
v -0.328357 0.330337 0.303389
v -0.042040 0.221704 0.303389
v 0.233322 0.278792 0.303389
v 0.417890 0.535844 0.303389
v 0.532838 0.629761 0.303389
v 0.664643 0.495388 0.303389
v 0.617007 0.263192 0.303389
v 0.281018 0.092464 0.303389
v -0.124558 0.089650 0.303389
v -0.474424 0.192568 0.303389
v -0.591655 0.451657 0.303389
v -0.512240 0.941970 0.303389
v -0.315789 0.804073 0.303389
v -0.091725 0.961296 0.303389
v -0.253757 1.208647 0.303389
v 0.348293 1.068584 0.303389
v 0.255807 0.936166 0.303389
v 0.455450 0.823299 0.303389
v 0.598069 0.980695 0.303389
v -0.601035 0.540481 0.408970
v -0.413617 0.552183 0.408970
v -0.328357 0.330337 0.408970
v -0.042040 0.221704 0.408970
v 0.233322 0.278792 0.408970
v 0.417890 0.535844 0.408970
v 0.532838 0.629761 0.408970
v 0.664643 0.495388 0.408970
v 0.617007 0.263192 0.408970
v 0.281018 0.092464 0.408970
v -0.124558 0.089650 0.408970
v -0.474424 0.192568 0.408970
v -0.591655 0.451657 0.408970
v -0.512240 0.941970 0.408970
v -0.315789 0.804073 0.408970
v -0.091725 0.961296 0.408970
v -0.253757 1.208647 0.408970
v 0.348293 1.068584 0.408970
v 0.255807 0.936166 0.408970
v 0.455450 0.823299 0.408970
v 0.598069 0.980695 0.408970
v -0.833988 0.794104 0.241265
v -0.833988 0.794104 -0.241265
v 0.833988 0.794104 -0.241265
v 0.833988 0.794104 0.241265
v -0.760834 0.733704 0.303389
v -0.760834 1.376353 0.303389
v -0.760834 1.376353 -0.303389
v 0.760834 1.376353 -0.303389
v 0.760834 1.376353 0.303389
v -0.760834 0.733704 -0.303389
v 0.760834 0.733704 -0.303389
v 0.760834 0.733704 0.303389
v -1.702235 0.794104 0.241265
v -1.702235 1.315954 0.241265
v -1.702235 1.315954 -0.241265
v 1.729285 1.315954 -0.241265
v 1.729285 1.315954 0.241265
v -1.702235 0.794104 -0.241265
v 1.729285 0.794104 -0.241265
v 1.729285 0.794104 0.241265
v -1.268111 0.794104 0.241265
v -1.268111 0.794104 -0.241265
v -1.268111 1.315954 -0.241265
v -1.268111 1.315954 0.241265
v 1.281637 0.794104 0.241265
v 1.281637 1.315954 0.241265
v 1.281637 0.794104 -0.241265
v 1.281637 1.315954 -0.241265
v 1.729285 -0.106948 -0.241265
v 1.729285 -0.106948 0.241265
v -1.702235 -0.106948 0.241265
v -1.702235 -0.106948 -0.241265
v -1.268111 -0.106948 0.241265
v 1.281637 -0.106948 0.241265
v 1.281637 -0.106948 -0.241265
v -1.268111 -0.106948 -0.241265
v 0.001528 -0.145314 -0.303389
v 0.005760 -0.145314 0.303389
v -0.611583 -0.145314 -0.154139
v -0.146685 -0.145314 -0.154139
v -0.144535 -0.145314 0.154139
v -0.611583 -0.145314 0.154139
v 0.153973 -0.145314 0.154139
v 0.151823 -0.145314 -0.154139
v 0.611583 -0.145314 -0.154139
v 0.611583 -0.145314 0.154139
v -0.146685 -1.335447 -0.154139
v -0.611583 -1.335447 -0.154139
v -0.611583 -1.335447 0.154139
v -0.144535 -1.335447 0.154139
v 0.151823 -1.335447 -0.154139
v 0.153973 -1.335447 0.154139
v 0.611583 -1.335447 0.154139
v 0.611583 -1.335447 -0.154139
vn -0.0000 -0.0000 1.0000
vn -0.0000 -0.0000 -1.0000
vn 1.0000 -0.0000 -0.0000
vn -0.0000 1.0000 -0.0000
vn 0.9334 0.3587 -0.0000
vn 0.7410 -0.6715 -0.0000
vn 0.4530 -0.8915 -0.0000
vn 0.5744 -0.8186 -0.0000
vn 0.0069 -1.0000 -0.0000
vn 0.3319 0.9433 -0.0000
vn 0.3547 0.9350 -0.0000
vn 0.8365 0.5480 -0.0000
vn -0.2822 -0.9594 -0.0000
vn -0.2030 0.9792 -0.0000
vn -0.7181 0.6960 -0.0000
vn -0.9111 -0.4122 -0.0000
vn -0.8123 0.5832 -0.0000
vn -0.9945 -0.1050 -0.0000
vn -0.6327 0.7744 -0.0000
vn 0.7139 0.7003 -0.0000
vn -0.8198 0.5726 -0.0000
vn 0.9796 -0.2010 -0.0000
vn -0.4921 -0.8705 -0.0000
vn -0.0623 0.9981 -0.0000
vn -0.5745 -0.8185 -0.0000
vn -1.0000 -0.0000 -0.0000
vn -0.6473 -0.0000 0.7622
vn -0.6367 0.7711 -0.0000
vn 0.6367 0.7711 -0.0000
vn -0.6473 -0.0000 -0.7622
vn 0.6473 -0.0000 -0.7622
vn 0.6473 -0.0000 0.7622
vn 0.6367 -0.7711 -0.0000
vn -0.6367 -0.7711 -0.0000
vn -0.0000 -1.0000 -0.0000
vn -1.0000 -0.0000 0.0070
vn 1.0000 -0.0000 -0.0070
vt 0.012283 0.606829
vt 0.118412 0.606829
vt 0.118412 0.697867
vt 0.012283 0.697867
vt 0.440156 0.506415
vt 0.309461 0.506415
vt 0.309461 0.196954
vt 0.440156 0.196954
vt 0.742322 0.106109
vt 0.840454 0.106107
vt 0.840454 0.289318
vt 0.742322 0.289319
vt 0.309461 0.500914
vt 0.179162 0.481351
vt 0.226383 0.471664
vt 0.261104 0.403334
vt 0.261676 0.320852
vt 0.240746 0.249700
vt 0.188055 0.225858
vt 0.169991 0.223951
vt 0.309461 0.191453
vt 0.309461 0.347355
vt 0.837306 0.545206
vt 0.931852 0.545206
vt 0.931852 0.787243
vt 0.837306 0.787243
vt 0.618922 0.305004
vt 0.618922 0.000000
vt 0.742322 0.000000
vt 0.742322 0.305004
vt 0.130695 0.191453
vt 0.130695 0.500914
vt 0.000000 0.500914
vt 0.080465 0.467812
vt 0.112474 0.438808
vt 0.089521 0.398206
vt 0.084410 0.327529
vt 0.116384 0.281961
vt 0.088340 0.242009
vt 0.000000 0.191453
vt 0.861926 0.287490
vt 0.861926 0.242037
vt 0.883398 0.242044
vt 0.883398 0.287497
vt 0.034106 0.294577
vt 0.280075 0.940303
vt 0.280075 0.908878
vt 0.301547 0.908860
vt 0.301547 0.940285
vt 0.062591 0.417015
vt 0.595026 0.876611
vt 0.595026 0.944314
vt 0.573555 0.944314
vt 0.573555 0.876611
vt 0.847235 0.313897
vt 0.830029 0.338701
vt 0.780860 0.380224
vt 0.773682 0.436963
vt 0.800277 0.493277
vt 0.846616 0.507021
vt 0.847235 0.545206
vt 0.829077 0.544722
vt 0.774677 0.525090
vt 0.748226 0.455801
vt 0.742322 0.373528
vt 0.771572 0.302684
vt 0.817888 0.289319
vt 0.968602 0.466096
vt 0.968602 0.541625
vt 0.920396 0.533956
vt 0.909930 0.479282
vt 0.225904 0.911981
vt 0.258603 0.908860
vt 0.258603 0.955501
vt 0.216464 0.964996
vt 0.955428 0.228898
vt 0.955428 0.273892
vt 0.933956 0.273892
vt 0.933956 0.228898
vt 0.595026 0.794152
vt 0.573555 0.794152
vt 0.931852 0.774771
vt 0.931852 0.721683
vt 0.953324 0.721683
vt 0.953324 0.774771
vt 0.595026 0.758993
vt 0.595026 0.697867
vt 0.616498 0.697867
vt 0.616498 0.758993
vt 0.595026 0.956904
vt 0.595026 0.905953
vt 0.616498 0.905965
vt 0.616498 0.956916
vt 0.595026 0.722640
vt 0.573555 0.722640
vt 0.595026 0.812223
vt 0.616498 0.812223
vt 0.976900 0.188455
vt 0.976900 0.263975
vt 0.955428 0.263975
vt 0.955428 0.188455
vt 0.573555 0.697867
vt 0.616498 0.842148
vt 0.616498 0.905953
vt 0.595026 0.842148
vt 0.196431 0.876600
vt 0.208296 0.876600
vt 0.208296 0.898072
vt 0.196431 0.898072
vt 0.865723 0.941683
vt 0.865723 0.910643
vt 0.887195 0.910643
vt 0.887195 0.941683
vt 0.280075 0.908860
vt 0.280075 0.941368
vt 0.258603 0.941368
vt 0.258603 0.908860
vt 0.840454 0.289060
vt 0.840454 0.242041
vt 0.861926 0.242037
vt 0.861926 0.289056
vt 0.904870 0.242037
vt 0.904870 0.283039
vt 0.883398 0.283039
vt 0.883398 0.242037
vt 0.904870 0.279201
vt 0.904870 0.242037
vt 0.926342 0.242037
vt 0.926342 0.279201
vt 0.955428 0.188455
vt 0.933956 0.188455
vt 0.167611 0.262066
vt 0.212728 0.279405
vt 0.234821 0.337633
vt 0.223211 0.393634
vt 0.170934 0.431169
vt 0.151834 0.454546
vt 0.093064 0.876600
vt 0.093064 0.697870
vt 0.216464 0.697867
vt 0.216464 0.876598
vt 0.618922 0.506415
vt 0.618922 0.196954
vt 0.618922 0.351374
vt 0.742322 0.917587
vt 0.742322 0.787243
vt 0.865723 0.787243
vt 0.865723 0.917587
vt 0.012283 0.176575
vt 0.118412 0.176575
vt 0.736192 0.823244
vt 0.736192 0.921377
vt 0.717054 0.934011
vt 0.717054 0.810610
vt 0.729688 0.321744
vt 0.631556 0.321744
vt 0.427873 0.521292
vt 0.321744 0.521292
vt 0.321744 0.182076
vt 0.427873 0.182076
vt 0.118412 0.515791
vt 0.012283 0.515791
vt 0.880380 0.799877
vt 0.880380 0.898009
vt 0.865723 0.910643
vt 0.181338 0.987366
vt 0.181338 0.889234
vt 0.196431 0.876600
vt 0.196431 1.000000
vt 0.216464 0.775249
vt 0.216464 0.697867
vt 0.314596 0.697867
vt 0.314596 0.775249
vt 0.742322 0.000002
vt 0.840454 0.000000
vt 0.321744 0.609580
vt 0.427873 0.609580
vt 0.427873 0.697867
vt 0.321744 0.697867
vt 0.510860 0.784883
vt 0.412728 0.784883
vt 0.412728 0.697867
vt 0.510860 0.697867
vt 0.611120 0.609580
vt 0.611120 0.697867
vt 0.427873 0.091038
vt 0.321744 0.091038
vt 0.321744 0.000000
vt 0.427873 0.000000
vt 0.631556 0.411471
vt 0.729688 0.411471
vt 0.729688 0.501198
vt 0.631556 0.501198
vt 0.118412 0.088288
vt 0.012283 0.088288
vt 0.012283 0.000000
vt 0.118412 0.000000
vt 0.510860 0.871899
vt 0.412728 0.871899
vt 0.093064 0.987366
vt 0.093064 0.889234
vt 0.971404 0.799877
vt 0.971404 0.898009
vt 0.402870 0.881079
vt 0.402870 0.979211
vt 0.314596 0.979211
vt 0.314596 0.881079
vt 0.412728 0.970032
vt 0.412728 0.871900
vt 0.503752 0.871900
vt 0.503752 0.970032
vt 0.314596 0.908861
vt 0.216464 0.908861
vt 0.611120 0.000000
vt 0.611120 0.091038
vt 0.314596 0.697869
vt 0.412728 0.697867
vt 0.412728 0.881078
vt 0.314596 0.881079
vt 0.301659 0.606829
vt 0.301659 0.697867
vt 0.618922 0.810610
vt 0.717054 0.810610
vt 0.717054 0.944222
vt 0.618922 0.944222
vt 0.301659 0.000000
vt 0.301659 0.088288
vt 0.510860 0.697868
vt 0.573555 0.697867
vt 0.573555 0.939856
vt 0.510860 0.939857
vt 0.742322 0.501198
vt 0.742322 0.656215
vt 0.711969 0.626078
vt 0.711969 0.531546
vt 0.618922 0.657076
vt 0.649275 0.626515
vt 0.618922 0.501198
vt 0.649275 0.531546
vt 0.711969 0.686776
vt 0.649275 0.687213
vt 0.742322 0.810610
vt 0.711969 0.780262
vt 0.649275 0.780262
vt 0.996650 0.000000
vt 0.996650 0.094531
vt 0.933956 0.094969
vt 0.933956 0.000000
vt 0.933956 0.095406
vt 0.996650 0.094969
vt 0.996650 0.188455
vt 0.000000 0.697867
vt 0.093064 0.697867
vt 0.093064 0.939904
vt 0.000000 0.939904
vt 0.742322 0.545206
vt 0.837306 0.545206
vt 0.837306 0.787243
vt 0.931852 0.545206
vt 0.994546 0.545206
vt 0.994546 0.721683
vt 0.931852 0.721683
vt 0.933956 0.242037
vt 0.840454 0.242037
vt 0.909930 0.289319
vt 0.972624 0.289619
vt 0.972624 0.466096
vt 0.909930 0.465797
vt 0.847235 0.289319
vt 0.909930 0.289327
vt 0.909930 0.531316
vt 0.847235 0.531308
s 0
f 76/1/1 75/2/1 70/3/1 67/4/1
f 60/5/2 57/6/2 58/7/2 61/8/2
f 69/9/3 70/10/3 80/11/3 79/12/3
f 5/13/1 16/14/1 17/15/1 18/16/1 19/17/1 20/18/1 21/19/1 9/20/1 1/21/1 88/22/1
f 89/23/2 90/24/2 97/25/2 98/26/2
f 58/27/4 57/28/4 56/29/4 59/30/4
f 55/31/1 62/32/1 59/33/1 29/34/1 28/35/1 27/36/1 24/37/1 23/38/1 22/39/1 56/40/1
f 11/41/5 10/42/5 31/43/5 32/44/5
f 56/40/1 22/39/1 25/45/1 24/37/1 59/33/1
f 28/46/6 29/47/6 50/48/6 49/49/6
f 24/37/1 27/36/1 26/50/1 29/34/1 59/33/1
f 18/51/7 17/52/7 38/53/7 39/54/7
f 36/55/1 35/56/1 34/57/1 33/58/1 32/59/1 31/60/1 30/61/1 42/62/1 41/63/1 40/64/1 39/65/1 38/66/1 37/67/1
f 46/68/1 43/69/1 44/70/1 45/71/1
f 47/72/1 48/73/1 49/74/1 50/75/1
f 23/76/8 24/77/8 45/78/8 44/79/8
f 19/80/9 18/51/9 39/54/9 40/81/9
f 29/82/10 26/83/10 47/84/10 50/85/10
f 12/86/11 11/87/11 32/88/11 33/89/11
f 24/90/12 25/91/12 46/92/12 45/93/12
f 20/94/13 19/80/13 40/81/13 41/95/13
f 13/96/14 12/86/14 33/89/14 34/97/14
f 25/98/15 22/99/15 43/100/15 46/101/15
f 21/87/16 20/94/16 41/95/16 42/102/16
f 14/103/17 13/104/17 34/91/17 35/105/17
f 9/106/18 21/107/18 42/108/18 30/109/18
f 15/97/19 14/103/19 35/105/19 36/96/19
f 16/110/20 15/111/20 36/112/20 37/113/20
f 26/114/21 27/115/21 48/116/21 47/117/21
f 17/118/22 16/119/22 37/120/22 38/121/22
f 27/122/23 28/123/23 49/124/23 48/125/23
f 10/126/24 9/127/24 30/128/24 31/129/24
f 22/130/25 23/76/25 44/79/25 43/131/25
f 1/21/1 9/20/1 10/132/1 11/133/1 12/134/1 13/135/1 14/136/1 15/137/1 16/14/1 5/13/1 62/32/1 55/31/1
f 7/138/3 61/139/3 62/140/3 5/141/3
f 3/142/2 60/5/2 61/8/2 7/143/2 87/144/2
f 1/145/26 55/146/26 60/147/26 3/148/26
f 2/149/27 51/150/27 55/31/27 56/40/27
f 4/151/28 2/152/28 56/153/28 57/154/28
f 6/155/29 8/156/29 58/27/29 59/30/29
f 52/157/30 4/158/30 57/6/30 60/5/30
f 8/159/31 53/160/31 61/8/31 58/7/31
f 54/161/32 6/162/32 59/33/32 62/32/32
f 53/163/33 54/164/33 62/165/33 61/147/33
f 51/166/34 52/167/34 60/168/34 55/169/34
f 63/170/26 64/171/26 65/172/26 68/173/26
f 69/9/3 66/174/3 67/175/3 70/10/3
f 73/176/2 72/177/2 68/178/2 65/179/2
f 74/180/4 73/181/4 65/182/4 64/183/4
f 68/178/2 72/177/2 86/184/2 82/185/2
f 77/186/2 78/187/2 66/188/2 69/189/2
f 78/190/4 76/191/4 67/192/4 66/193/4
f 71/194/1 74/195/1 64/196/1 63/197/1
f 51/150/1 2/149/1 74/195/1 71/194/1
f 2/198/4 4/199/4 73/181/4 74/180/4
f 4/158/2 52/157/2 72/177/2 73/176/2
f 52/167/35 51/166/35 71/200/35 72/201/35
f 8/156/4 6/155/4 76/191/4 78/190/4
f 53/160/2 8/159/2 78/187/2 77/186/2
f 54/164/35 53/163/35 77/202/35 75/203/35
f 6/162/1 54/161/1 75/2/1 76/1/1
f 86/204/35 83/205/35 81/206/35 82/207/35
f 84/208/35 85/209/35 79/210/35 80/211/35
f 63/170/26 68/173/26 82/212/26 81/213/26
f 77/186/2 69/189/2 79/214/2 85/215/2
f 72/216/3 71/217/3 83/218/3 86/219/3
f 70/3/1 75/2/1 84/220/1 80/221/1
f 75/222/26 77/223/26 85/224/26 84/225/26
f 71/194/1 63/197/1 81/226/1 83/227/1
f 95/228/3 96/229/3 103/230/3 104/231/3
f 3/232/35 87/233/35 90/234/35 89/235/35
f 87/233/35 88/236/35 91/237/35 90/234/35
f 88/236/35 1/238/35 92/239/35 91/237/35
f 1/238/35 3/232/35 89/235/35 92/239/35
f 88/236/35 87/233/35 94/240/35 93/241/35
f 87/233/35 7/242/35 95/243/35 94/240/35
f 7/242/35 5/222/35 96/244/35 95/243/35
f 5/222/35 88/236/35 93/241/35 96/244/35
f 98/245/35 97/246/35 100/247/35 99/248/35
f 102/249/35 101/250/35 104/251/35 103/131/35
f 96/252/1 93/253/1 102/254/1 103/255/1
f 91/256/1 92/257/1 99/258/1 100/146/1
f 92/259/26 89/260/26 98/261/26 99/262/26
f 94/175/2 95/248/2 104/263/2 101/264/2
f 93/265/36 94/266/36 101/267/36 102/268/36
f 90/269/37 91/270/37 100/271/37 97/272/37
